P1
10 10
1110100001
0001100011
1011011101
0010110100
0000111001
1101011011
1011110000
1001100100
1101010100
1100111011
